<svg xmlns="http://www.w3.org/2000/svg" viewBox="0 0 820 320" role="img">
<rect width="820" height="320" fill="#ffffff"/>
<title>Capture file size sample (.nls bytes)</title>
<text x="410.0" y="28" text-anchor="middle" font-family="system-ui,sans-serif" font-size="14" font-weight="600" fill="#1f2328">Capture file size sample (.nls bytes)</text>
<text x="16" y="160.0" transform="rotate(-90 16 160.0)" text-anchor="middle" font-family="system-ui,sans-serif" font-size="11" fill="#656d76">bytes</text>
<line x1="64" y1="264.0" x2="796" y2="264.0" stroke="#d0d7de" stroke-width="1"/>
<text x="56" y="268.0" text-anchor="end" font-family="system-ui,sans-serif" font-size="10" fill="#656d76">0</text>
<line x1="64" y1="220.8" x2="796" y2="220.8" stroke="#d0d7de" stroke-width="1"/>
<text x="56" y="224.8" text-anchor="end" font-family="system-ui,sans-serif" font-size="10" fill="#656d76">2516457</text>
<line x1="64" y1="177.6" x2="796" y2="177.6" stroke="#d0d7de" stroke-width="1"/>
<text x="56" y="181.6" text-anchor="end" font-family="system-ui,sans-serif" font-size="10" fill="#656d76">5032913</text>
<line x1="64" y1="134.4" x2="796" y2="134.4" stroke="#d0d7de" stroke-width="1"/>
<text x="56" y="138.4" text-anchor="end" font-family="system-ui,sans-serif" font-size="10" fill="#656d76">7549370</text>
<line x1="64" y1="91.2" x2="796" y2="91.2" stroke="#d0d7de" stroke-width="1"/>
<text x="56" y="95.2" text-anchor="end" font-family="system-ui,sans-serif" font-size="10" fill="#656d76">10065826</text>
<line x1="64" y1="48.0" x2="796" y2="48.0" stroke="#d0d7de" stroke-width="1"/>
<text x="56" y="52.0" text-anchor="end" font-family="system-ui,sans-serif" font-size="10" fill="#656d76">12582283</text>
<rect x="64.0" y="247.0" width="12.6" height="17.0" fill="#0969da" rx="2"/>
<text x="70.3" y="243.0" text-anchor="middle" font-family="system-ui,sans-serif" font-size="9" fill="#1f2328">989448</text>
<rect x="89.2" y="204.9" width="12.6" height="59.1" fill="#0969da" rx="2"/>
<text x="95.6" y="200.9" text-anchor="middle" font-family="system-ui,sans-serif" font-size="9" fill="#1f2328">3.44084e+06</text>
<rect x="114.5" y="192.7" width="12.6" height="71.3" fill="#0969da" rx="2"/>
<text x="120.8" y="188.7" text-anchor="middle" font-family="system-ui,sans-serif" font-size="9" fill="#1f2328">4.15237e+06</text>
<rect x="139.7" y="182.5" width="12.6" height="81.5" fill="#0969da" rx="2"/>
<text x="146.0" y="178.5" text-anchor="middle" font-family="system-ui,sans-serif" font-size="9" fill="#1f2328">4.74869e+06</text>
<rect x="165.0" y="165.1" width="12.6" height="98.9" fill="#0969da" rx="2"/>
<text x="171.3" y="161.1" text-anchor="middle" font-family="system-ui,sans-serif" font-size="9" fill="#1f2328">5.7608e+06</text>
<rect x="190.2" y="157.9" width="12.6" height="106.1" fill="#0969da" rx="2"/>
<text x="196.5" y="153.9" text-anchor="middle" font-family="system-ui,sans-serif" font-size="9" fill="#1f2328">6.18323e+06</text>
<rect x="215.4" y="153.1" width="12.6" height="110.9" fill="#0969da" rx="2"/>
<text x="221.8" y="149.1" text-anchor="middle" font-family="system-ui,sans-serif" font-size="9" fill="#1f2328">6.458e+06</text>
<rect x="240.7" y="134.4" width="12.6" height="129.6" fill="#0969da" rx="2"/>
<text x="247.0" y="130.4" text-anchor="middle" font-family="system-ui,sans-serif" font-size="9" fill="#1f2328">7.54853e+06</text>
<rect x="265.9" y="123.3" width="12.6" height="140.7" fill="#0969da" rx="2"/>
<text x="272.2" y="119.3" text-anchor="middle" font-family="system-ui,sans-serif" font-size="9" fill="#1f2328">8.19354e+06</text>
<rect x="291.2" y="111.4" width="12.6" height="152.6" fill="#0969da" rx="2"/>
<text x="297.5" y="107.4" text-anchor="middle" font-family="system-ui,sans-serif" font-size="9" fill="#1f2328">8.89094e+06</text>
<rect x="316.4" y="90.2" width="12.6" height="173.8" fill="#0969da" rx="2"/>
<text x="322.7" y="86.2" text-anchor="middle" font-family="system-ui,sans-serif" font-size="9" fill="#1f2328">1.01264e+07</text>
<rect x="341.7" y="92.3" width="12.6" height="171.7" fill="#0969da" rx="2"/>
<text x="348.0" y="88.3" text-anchor="middle" font-family="system-ui,sans-serif" font-size="9" fill="#1f2328">1.00023e+07</text>
<rect x="366.9" y="71.1" width="12.6" height="192.9" fill="#0969da" rx="2"/>
<text x="373.2" y="67.1" text-anchor="middle" font-family="system-ui,sans-serif" font-size="9" fill="#1f2328">1.12342e+07</text>
<rect x="392.1" y="203.7" width="12.6" height="60.3" fill="#0969da" rx="2"/>
<text x="398.4" y="199.7" text-anchor="middle" font-family="system-ui,sans-serif" font-size="9" fill="#1f2328">3.515e+06</text>
<rect x="417.4" y="205.2" width="12.6" height="58.8" fill="#0969da" rx="2"/>
<text x="423.7" y="201.2" text-anchor="middle" font-family="system-ui,sans-serif" font-size="9" fill="#1f2328">3.42536e+06</text>
<rect x="442.6" y="207.5" width="12.6" height="56.5" fill="#0969da" rx="2"/>
<text x="448.9" y="203.5" text-anchor="middle" font-family="system-ui,sans-serif" font-size="9" fill="#1f2328">3.28988e+06</text>
<rect x="467.9" y="209.2" width="12.6" height="54.8" fill="#0969da" rx="2"/>
<text x="474.2" y="205.2" text-anchor="middle" font-family="system-ui,sans-serif" font-size="9" fill="#1f2328">3.19172e+06</text>
<rect x="493.1" y="203.2" width="12.6" height="60.8" fill="#0969da" rx="2"/>
<text x="499.4" y="199.2" text-anchor="middle" font-family="system-ui,sans-serif" font-size="9" fill="#1f2328">3.53921e+06</text>
<rect x="518.3" y="215.8" width="12.6" height="48.2" fill="#0969da" rx="2"/>
<text x="524.7" y="211.8" text-anchor="middle" font-family="system-ui,sans-serif" font-size="9" fill="#1f2328">2.80829e+06</text>
<rect x="543.6" y="205.7" width="12.6" height="58.3" fill="#0969da" rx="2"/>
<text x="549.9" y="201.7" text-anchor="middle" font-family="system-ui,sans-serif" font-size="9" fill="#1f2328">3.39526e+06</text>
<rect x="568.8" y="200.1" width="12.6" height="63.9" fill="#0969da" rx="2"/>
<text x="575.1" y="196.1" text-anchor="middle" font-family="system-ui,sans-serif" font-size="9" fill="#1f2328">3.72073e+06</text>
<rect x="594.1" y="215.8" width="12.6" height="48.2" fill="#0969da" rx="2"/>
<text x="600.4" y="211.8" text-anchor="middle" font-family="system-ui,sans-serif" font-size="9" fill="#1f2328">2.8083e+06</text>
<rect x="619.3" y="234.8" width="12.6" height="29.2" fill="#0969da" rx="2"/>
<text x="625.6" y="230.8" text-anchor="middle" font-family="system-ui,sans-serif" font-size="9" fill="#1f2328">1.70053e+06</text>
<rect x="644.6" y="201.6" width="12.6" height="62.4" fill="#0969da" rx="2"/>
<text x="650.9" y="197.6" text-anchor="middle" font-family="system-ui,sans-serif" font-size="9" fill="#1f2328">3.63315e+06</text>
<rect x="669.8" y="207.3" width="12.6" height="56.7" fill="#0969da" rx="2"/>
<text x="676.1" y="203.3" text-anchor="middle" font-family="system-ui,sans-serif" font-size="9" fill="#1f2328">3.30524e+06</text>
<rect x="695.0" y="234.8" width="12.6" height="29.2" fill="#0969da" rx="2"/>
<text x="701.3" y="230.8" text-anchor="middle" font-family="system-ui,sans-serif" font-size="9" fill="#1f2328">1.70053e+06</text>
<rect x="720.3" y="201.3" width="12.6" height="62.7" fill="#0969da" rx="2"/>
<text x="726.6" y="197.3" text-anchor="middle" font-family="system-ui,sans-serif" font-size="9" fill="#1f2328">3.65209e+06</text>
<rect x="745.5" y="204.1" width="12.6" height="59.9" fill="#0969da" rx="2"/>
<text x="751.8" y="200.1" text-anchor="middle" font-family="system-ui,sans-serif" font-size="9" fill="#1f2328">3.48638e+06</text>
<rect x="770.8" y="245.3" width="12.6" height="18.7" fill="#0969da" rx="2"/>
<text x="777.1" y="241.3" text-anchor="middle" font-family="system-ui,sans-serif" font-size="9" fill="#1f2328">1.08802e+06</text>
<rect x="64" y="298" width="10" height="10" fill="#0969da"/>
<text x="78" y="307" font-family="system-ui,sans-serif" font-size="11" fill="#1f2328">bytes</text>
<text x="76.6" y="284" text-anchor="middle" font-family="system-ui,sans-serif" font-size="11" fill="#1f2328">1</text>
<text x="101.9" y="284" text-anchor="middle" font-family="system-ui,sans-serif" font-size="11" fill="#1f2328">6</text>
<text x="127.1" y="284" text-anchor="middle" font-family="system-ui,sans-serif" font-size="11" fill="#1f2328">11</text>
<text x="152.3" y="284" text-anchor="middle" font-family="system-ui,sans-serif" font-size="11" fill="#1f2328">16</text>
<text x="177.6" y="284" text-anchor="middle" font-family="system-ui,sans-serif" font-size="11" fill="#1f2328">21</text>
<text x="202.8" y="284" text-anchor="middle" font-family="system-ui,sans-serif" font-size="11" fill="#1f2328">26</text>
<text x="228.1" y="284" text-anchor="middle" font-family="system-ui,sans-serif" font-size="11" fill="#1f2328">31</text>
<text x="253.3" y="284" text-anchor="middle" font-family="system-ui,sans-serif" font-size="11" fill="#1f2328">36</text>
<text x="278.6" y="284" text-anchor="middle" font-family="system-ui,sans-serif" font-size="11" fill="#1f2328">41</text>
<text x="303.8" y="284" text-anchor="middle" font-family="system-ui,sans-serif" font-size="11" fill="#1f2328">46</text>
<text x="329.0" y="284" text-anchor="middle" font-family="system-ui,sans-serif" font-size="11" fill="#1f2328">51</text>
<text x="354.3" y="284" text-anchor="middle" font-family="system-ui,sans-serif" font-size="11" fill="#1f2328">56</text>
<text x="379.5" y="284" text-anchor="middle" font-family="system-ui,sans-serif" font-size="11" fill="#1f2328">61</text>
<text x="404.8" y="284" text-anchor="middle" font-family="system-ui,sans-serif" font-size="11" fill="#1f2328">66</text>
<text x="430.0" y="284" text-anchor="middle" font-family="system-ui,sans-serif" font-size="11" fill="#1f2328">71</text>
<text x="455.2" y="284" text-anchor="middle" font-family="system-ui,sans-serif" font-size="11" fill="#1f2328">76</text>
<text x="480.5" y="284" text-anchor="middle" font-family="system-ui,sans-serif" font-size="11" fill="#1f2328">81</text>
<text x="505.7" y="284" text-anchor="middle" font-family="system-ui,sans-serif" font-size="11" fill="#1f2328">86</text>
<text x="531.0" y="284" text-anchor="middle" font-family="system-ui,sans-serif" font-size="11" fill="#1f2328">91</text>
<text x="556.2" y="284" text-anchor="middle" font-family="system-ui,sans-serif" font-size="11" fill="#1f2328">96</text>
<text x="581.4" y="284" text-anchor="middle" font-family="system-ui,sans-serif" font-size="11" fill="#1f2328">101</text>
<text x="606.7" y="284" text-anchor="middle" font-family="system-ui,sans-serif" font-size="11" fill="#1f2328">106</text>
<text x="631.9" y="284" text-anchor="middle" font-family="system-ui,sans-serif" font-size="11" fill="#1f2328">111</text>
<text x="657.2" y="284" text-anchor="middle" font-family="system-ui,sans-serif" font-size="11" fill="#1f2328">116</text>
<text x="682.4" y="284" text-anchor="middle" font-family="system-ui,sans-serif" font-size="11" fill="#1f2328">121</text>
<text x="707.7" y="284" text-anchor="middle" font-family="system-ui,sans-serif" font-size="11" fill="#1f2328">126</text>
<text x="732.9" y="284" text-anchor="middle" font-family="system-ui,sans-serif" font-size="11" fill="#1f2328">131</text>
<text x="758.1" y="284" text-anchor="middle" font-family="system-ui,sans-serif" font-size="11" fill="#1f2328">136</text>
<text x="783.4" y="284" text-anchor="middle" font-family="system-ui,sans-serif" font-size="11" fill="#1f2328">141</text>
</svg>