<svg xmlns="http://www.w3.org/2000/svg" viewBox="0 0 720 320" role="img">
<rect width="720" height="320" fill="#ffffff"/>
<title>Per-probe latency — long12 (ms)</title>
<text x="360.0" y="28" text-anchor="middle" font-family="system-ui,sans-serif" font-size="14" font-weight="600" fill="#1f2328">Per-probe latency — long12 (ms)</text>
<text x="16" y="160.0" transform="rotate(-90 16 160.0)" text-anchor="middle" font-family="system-ui,sans-serif" font-size="11" fill="#656d76">ms</text>
<line x1="64" y1="264.0" x2="696" y2="264.0" stroke="#d0d7de" stroke-width="1"/>
<text x="56" y="268.0" text-anchor="end" font-family="system-ui,sans-serif" font-size="10" fill="#656d76">0</text>
<line x1="64" y1="220.8" x2="696" y2="220.8" stroke="#d0d7de" stroke-width="1"/>
<text x="56" y="224.8" text-anchor="end" font-family="system-ui,sans-serif" font-size="10" fill="#656d76">1115</text>
<line x1="64" y1="177.6" x2="696" y2="177.6" stroke="#d0d7de" stroke-width="1"/>
<text x="56" y="181.6" text-anchor="end" font-family="system-ui,sans-serif" font-size="10" fill="#656d76">2229</text>
<line x1="64" y1="134.4" x2="696" y2="134.4" stroke="#d0d7de" stroke-width="1"/>
<text x="56" y="138.4" text-anchor="end" font-family="system-ui,sans-serif" font-size="10" fill="#656d76">3344</text>
<line x1="64" y1="91.2" x2="696" y2="91.2" stroke="#d0d7de" stroke-width="1"/>
<text x="56" y="95.2" text-anchor="end" font-family="system-ui,sans-serif" font-size="10" fill="#656d76">4459</text>
<line x1="64" y1="48.0" x2="696" y2="48.0" stroke="#d0d7de" stroke-width="1"/>
<text x="56" y="52.0" text-anchor="end" font-family="system-ui,sans-serif" font-size="10" fill="#656d76">5574</text>
<rect x="67.1" y="165.4" width="36.0" height="98.6" fill="#0969da" rx="2"/>
<text x="85.1" y="161.4" text-anchor="middle" font-family="system-ui,sans-serif" font-size="9" fill="#1f2328">2543.9</text>
<rect x="193.5" y="202.4" width="36.0" height="61.6" fill="#0969da" rx="2"/>
<text x="211.5" y="198.4" text-anchor="middle" font-family="system-ui,sans-serif" font-size="9" fill="#1f2328">1589.8</text>
<rect x="319.9" y="157.5" width="36.0" height="106.5" fill="#0969da" rx="2"/>
<text x="337.9" y="153.5" text-anchor="middle" font-family="system-ui,sans-serif" font-size="9" fill="#1f2328">2748.9</text>
<rect x="446.3" y="164.6" width="36.0" height="99.4" fill="#0969da" rx="2"/>
<text x="464.3" y="160.6" text-anchor="middle" font-family="system-ui,sans-serif" font-size="9" fill="#1f2328">2565.4</text>
<rect x="572.7" y="71.1" width="36.0" height="192.9" fill="#0969da" rx="2"/>
<text x="590.7" y="67.1" text-anchor="middle" font-family="system-ui,sans-serif" font-size="9" fill="#1f2328">4976.4</text>
<rect x="64" y="298" width="10" height="10" fill="#0969da"/>
<text x="78" y="307" font-family="system-ui,sans-serif" font-size="11" fill="#1f2328">TEXT</text>
<rect x="109.2" y="202.1" width="36.0" height="61.9" fill="#1a7f37" rx="2"/>
<text x="127.2" y="198.1" text-anchor="middle" font-family="system-ui,sans-serif" font-size="9" fill="#1f2328">1597.9</text>
<rect x="235.6" y="217.3" width="36.0" height="46.7" fill="#1a7f37" rx="2"/>
<text x="253.6" y="213.3" text-anchor="middle" font-family="system-ui,sans-serif" font-size="9" fill="#1f2328">1206.1</text>
<rect x="362.0" y="182.1" width="36.0" height="81.9" fill="#1a7f37" rx="2"/>
<text x="380.0" y="178.1" text-anchor="middle" font-family="system-ui,sans-serif" font-size="9" fill="#1f2328">2114.6</text>
<rect x="488.4" y="221.2" width="36.0" height="42.8" fill="#1a7f37" rx="2"/>
<text x="506.4" y="217.2" text-anchor="middle" font-family="system-ui,sans-serif" font-size="9" fill="#1f2328">1104</text>
<rect x="614.8" y="197.3" width="36.0" height="66.7" fill="#1a7f37" rx="2"/>
<text x="632.8" y="193.3" text-anchor="middle" font-family="system-ui,sans-serif" font-size="9" fill="#1f2328">1720.1</text>
<rect x="174" y="298" width="10" height="10" fill="#1a7f37"/>
<text x="188" y="307" font-family="system-ui,sans-serif" font-size="11" fill="#1f2328">RESUME</text>
<text x="127.2" y="284" text-anchor="middle" font-family="system-ui,sans-serif" font-size="11" fill="#1f2328">P1</text>
<text x="253.6" y="284" text-anchor="middle" font-family="system-ui,sans-serif" font-size="11" fill="#1f2328">P2</text>
<text x="380.0" y="284" text-anchor="middle" font-family="system-ui,sans-serif" font-size="11" fill="#1f2328">P3</text>
<text x="506.4" y="284" text-anchor="middle" font-family="system-ui,sans-serif" font-size="11" fill="#1f2328">P4</text>
<text x="632.8" y="284" text-anchor="middle" font-family="system-ui,sans-serif" font-size="11" fill="#1f2328">P5</text>
</svg>