<svg xmlns="http://www.w3.org/2000/svg" viewBox="0 0 720 320" role="img">
<rect width="720" height="320" fill="#ffffff"/>
<title>Mean recall latency — long12 (ms)</title>
<text x="360.0" y="28" text-anchor="middle" font-family="system-ui,sans-serif" font-size="14" font-weight="600" fill="#1f2328">Mean recall latency — long12 (ms)</text>
<text x="16" y="160.0" transform="rotate(-90 16 160.0)" text-anchor="middle" font-family="system-ui,sans-serif" font-size="11" fill="#656d76">ms</text>
<line x1="64" y1="264.0" x2="696" y2="264.0" stroke="#d0d7de" stroke-width="1"/>
<text x="56" y="268.0" text-anchor="end" font-family="system-ui,sans-serif" font-size="10" fill="#656d76">0</text>
<line x1="64" y1="220.8" x2="696" y2="220.8" stroke="#d0d7de" stroke-width="1"/>
<text x="56" y="224.8" text-anchor="end" font-family="system-ui,sans-serif" font-size="10" fill="#656d76">646</text>
<line x1="64" y1="177.6" x2="696" y2="177.6" stroke="#d0d7de" stroke-width="1"/>
<text x="56" y="181.6" text-anchor="end" font-family="system-ui,sans-serif" font-size="10" fill="#656d76">1292</text>
<line x1="64" y1="134.4" x2="696" y2="134.4" stroke="#d0d7de" stroke-width="1"/>
<text x="56" y="138.4" text-anchor="end" font-family="system-ui,sans-serif" font-size="10" fill="#656d76">1939</text>
<line x1="64" y1="91.2" x2="696" y2="91.2" stroke="#d0d7de" stroke-width="1"/>
<text x="56" y="95.2" text-anchor="end" font-family="system-ui,sans-serif" font-size="10" fill="#656d76">2585</text>
<line x1="64" y1="48.0" x2="696" y2="48.0" stroke="#d0d7de" stroke-width="1"/>
<text x="56" y="52.0" text-anchor="end" font-family="system-ui,sans-serif" font-size="10" fill="#656d76">3231</text>
<rect x="98.7" y="71.1" width="36.0" height="192.9" fill="#0969da" rx="2"/>
<text x="116.7" y="67.1" text-anchor="middle" font-family="system-ui,sans-serif" font-size="9" fill="#1f2328">2884.9</text>
<rect x="309.3" y="160.5" width="36.0" height="103.5" fill="#0969da" rx="2"/>
<text x="327.3" y="156.5" text-anchor="middle" font-family="system-ui,sans-serif" font-size="9" fill="#1f2328">1548.5</text>
<rect x="520.0" y="165.5" width="36.0" height="98.5" fill="#0969da" rx="2"/>
<text x="538.0" y="161.5" text-anchor="middle" font-family="system-ui,sans-serif" font-size="9" fill="#1f2328">1472.9</text>
<rect x="64" y="298" width="10" height="10" fill="#0969da"/>
<text x="78" y="307" font-family="system-ui,sans-serif" font-size="11" fill="#1f2328">ms</text>
<text x="169.3" y="284" text-anchor="middle" font-family="system-ui,sans-serif" font-size="11" fill="#1f2328">TEXT</text>
<text x="380.0" y="284" text-anchor="middle" font-family="system-ui,sans-serif" font-size="11" fill="#1f2328">RESUME</text>
<text x="590.7" y="284" text-anchor="middle" font-family="system-ui,sans-serif" font-size="11" fill="#1f2328">OVERFLOW</text>
</svg>