<svg xmlns="http://www.w3.org/2000/svg" viewBox="0 0 720 320" role="img">
<rect width="720" height="320" fill="#ffffff"/>
<title>RoPE delta distribution (turn blocks)</title>
<text x="360.0" y="28" text-anchor="middle" font-family="system-ui,sans-serif" font-size="14" font-weight="600" fill="#1f2328">RoPE delta distribution (turn blocks)</text>
<text x="16" y="160.0" transform="rotate(-90 16 160.0)" text-anchor="middle" font-family="system-ui,sans-serif" font-size="11" fill="#656d76">blocks</text>
<line x1="64" y1="264.0" x2="696" y2="264.0" stroke="#d0d7de" stroke-width="1"/>
<text x="56" y="268.0" text-anchor="end" font-family="system-ui,sans-serif" font-size="10" fill="#656d76">0</text>
<line x1="64" y1="220.8" x2="696" y2="220.8" stroke="#d0d7de" stroke-width="1"/>
<text x="56" y="224.8" text-anchor="end" font-family="system-ui,sans-serif" font-size="10" fill="#656d76">17</text>
<line x1="64" y1="177.6" x2="696" y2="177.6" stroke="#d0d7de" stroke-width="1"/>
<text x="56" y="181.6" text-anchor="end" font-family="system-ui,sans-serif" font-size="10" fill="#656d76">34</text>
<line x1="64" y1="134.4" x2="696" y2="134.4" stroke="#d0d7de" stroke-width="1"/>
<text x="56" y="138.4" text-anchor="end" font-family="system-ui,sans-serif" font-size="10" fill="#656d76">51</text>
<line x1="64" y1="91.2" x2="696" y2="91.2" stroke="#d0d7de" stroke-width="1"/>
<text x="56" y="95.2" text-anchor="end" font-family="system-ui,sans-serif" font-size="10" fill="#656d76">68</text>
<line x1="64" y1="48.0" x2="696" y2="48.0" stroke="#d0d7de" stroke-width="1"/>
<text x="56" y="52.0" text-anchor="end" font-family="system-ui,sans-serif" font-size="10" fill="#656d76">85</text>
<rect x="125.0" y="53.1" width="36.0" height="210.9" fill="#0969da" rx="2"/>
<text x="143.0" y="49.1" text-anchor="middle" font-family="system-ui,sans-serif" font-size="9" fill="#1f2328">83</text>
<rect x="441.0" y="264.0" width="36.0" height="0.0" fill="#0969da" rx="2"/>
<text x="459.0" y="260.0" text-anchor="middle" font-family="system-ui,sans-serif" font-size="9" fill="#1f2328">0</text>
<rect x="64" y="298" width="10" height="10" fill="#0969da"/>
<text x="78" y="307" font-family="system-ui,sans-serif" font-size="11" fill="#1f2328">blocks</text>
<text x="222.0" y="284" text-anchor="middle" font-family="system-ui,sans-serif" font-size="11" fill="#1f2328">mode Δ=−22</text>
<text x="538.0" y="284" text-anchor="middle" font-family="system-ui,sans-serif" font-size="11" fill="#1f2328">outliers</text>
</svg>