<svg xmlns="http://www.w3.org/2000/svg" viewBox="0 0 720 320" role="img">
<rect width="720" height="320" fill="#ffffff"/>
<title>Chain inject tokens at checkpoint</title>
<text x="360.0" y="28" text-anchor="middle" font-family="system-ui,sans-serif" font-size="14" font-weight="600" fill="#1f2328">Chain inject tokens at checkpoint</text>
<text x="16" y="160.0" transform="rotate(-90 16 160.0)" text-anchor="middle" font-family="system-ui,sans-serif" font-size="11" fill="#656d76">tokens</text>
<line x1="64" y1="264.0" x2="696" y2="264.0" stroke="#d0d7de" stroke-width="1"/>
<text x="56" y="268.0" text-anchor="end" font-family="system-ui,sans-serif" font-size="10" fill="#656d76">0</text>
<line x1="64" y1="220.8" x2="696" y2="220.8" stroke="#d0d7de" stroke-width="1"/>
<text x="56" y="224.8" text-anchor="end" font-family="system-ui,sans-serif" font-size="10" fill="#656d76">5274</text>
<line x1="64" y1="177.6" x2="696" y2="177.6" stroke="#d0d7de" stroke-width="1"/>
<text x="56" y="181.6" text-anchor="end" font-family="system-ui,sans-serif" font-size="10" fill="#656d76">10547</text>
<line x1="64" y1="134.4" x2="696" y2="134.4" stroke="#d0d7de" stroke-width="1"/>
<text x="56" y="138.4" text-anchor="end" font-family="system-ui,sans-serif" font-size="10" fill="#656d76">15821</text>
<line x1="64" y1="91.2" x2="696" y2="91.2" stroke="#d0d7de" stroke-width="1"/>
<text x="56" y="95.2" text-anchor="end" font-family="system-ui,sans-serif" font-size="10" fill="#656d76">21095</text>
<line x1="64" y1="48.0" x2="696" y2="48.0" stroke="#d0d7de" stroke-width="1"/>
<text x="56" y="52.0" text-anchor="end" font-family="system-ui,sans-serif" font-size="10" fill="#656d76">26368</text>
<rect x="85.5" y="213.0" width="36.0" height="51.0" fill="#0969da" rx="2"/>
<text x="103.5" y="209.0" text-anchor="middle" font-family="system-ui,sans-serif" font-size="9" fill="#1f2328">6225</text>
<rect x="243.5" y="165.9" width="36.0" height="98.1" fill="#0969da" rx="2"/>
<text x="261.5" y="161.9" text-anchor="middle" font-family="system-ui,sans-serif" font-size="9" fill="#1f2328">11981</text>
<rect x="401.5" y="123.7" width="36.0" height="140.3" fill="#0969da" rx="2"/>
<text x="419.5" y="119.7" text-anchor="middle" font-family="system-ui,sans-serif" font-size="9" fill="#1f2328">17131</text>
<rect x="559.5" y="71.1" width="36.0" height="192.9" fill="#0969da" rx="2"/>
<text x="577.5" y="67.1" text-anchor="middle" font-family="system-ui,sans-serif" font-size="9" fill="#1f2328">23543</text>
<rect x="64" y="298" width="10" height="10" fill="#0969da"/>
<text x="78" y="307" font-family="system-ui,sans-serif" font-size="11" fill="#1f2328">inject tokens</text>
<text x="143.0" y="284" text-anchor="middle" font-family="system-ui,sans-serif" font-size="11" fill="#1f2328">cp20</text>
<text x="301.0" y="284" text-anchor="middle" font-family="system-ui,sans-serif" font-size="11" fill="#1f2328">cp40</text>
<text x="459.0" y="284" text-anchor="middle" font-family="system-ui,sans-serif" font-size="11" fill="#1f2328">cp60</text>
<text x="617.0" y="284" text-anchor="middle" font-family="system-ui,sans-serif" font-size="11" fill="#1f2328">cp80</text>
</svg>