<svg xmlns="http://www.w3.org/2000/svg" viewBox="0 0 720 320" role="img">
<rect width="720" height="320" fill="#ffffff"/>
<title>Recall pass count @5 (turn sweep)</title>
<text x="360.0" y="28" text-anchor="middle" font-family="system-ui,sans-serif" font-size="14" font-weight="600" fill="#1f2328">Recall pass count @5 (turn sweep)</text>
<text x="16" y="160.0" transform="rotate(-90 16 160.0)" text-anchor="middle" font-family="system-ui,sans-serif" font-size="11" fill="#656d76">pass / 5</text>
<line x1="64" y1="264.0" x2="696" y2="264.0" stroke="#d0d7de" stroke-width="1"/>
<text x="56" y="268.0" text-anchor="end" font-family="system-ui,sans-serif" font-size="10" fill="#656d76">0</text>
<line x1="64" y1="220.8" x2="696" y2="220.8" stroke="#d0d7de" stroke-width="1"/>
<text x="56" y="224.8" text-anchor="end" font-family="system-ui,sans-serif" font-size="10" fill="#656d76">1</text>
<line x1="64" y1="177.6" x2="696" y2="177.6" stroke="#d0d7de" stroke-width="1"/>
<text x="56" y="181.6" text-anchor="end" font-family="system-ui,sans-serif" font-size="10" fill="#656d76">2</text>
<line x1="64" y1="134.4" x2="696" y2="134.4" stroke="#d0d7de" stroke-width="1"/>
<text x="56" y="138.4" text-anchor="end" font-family="system-ui,sans-serif" font-size="10" fill="#656d76">3</text>
<line x1="64" y1="91.2" x2="696" y2="91.2" stroke="#d0d7de" stroke-width="1"/>
<text x="56" y="95.2" text-anchor="end" font-family="system-ui,sans-serif" font-size="10" fill="#656d76">4</text>
<line x1="64" y1="48.0" x2="696" y2="48.0" stroke="#d0d7de" stroke-width="1"/>
<text x="56" y="52.0" text-anchor="end" font-family="system-ui,sans-serif" font-size="10" fill="#656d76">5</text>
<rect x="65.8" y="48.0" width="36.0" height="216.0" fill="#0969da" rx="2"/>
<text x="83.8" y="44.0" text-anchor="middle" font-family="system-ui,sans-serif" font-size="9" fill="#1f2328">5</text>
<rect x="223.8" y="48.0" width="36.0" height="216.0" fill="#0969da" rx="2"/>
<text x="241.8" y="44.0" text-anchor="middle" font-family="system-ui,sans-serif" font-size="9" fill="#1f2328">5</text>
<rect x="381.8" y="48.0" width="36.0" height="216.0" fill="#0969da" rx="2"/>
<text x="399.8" y="44.0" text-anchor="middle" font-family="system-ui,sans-serif" font-size="9" fill="#1f2328">5</text>
<rect x="539.8" y="48.0" width="36.0" height="216.0" fill="#0969da" rx="2"/>
<text x="557.8" y="44.0" text-anchor="middle" font-family="system-ui,sans-serif" font-size="9" fill="#1f2328">5</text>
<rect x="64" y="298" width="10" height="10" fill="#0969da"/>
<text x="78" y="307" font-family="system-ui,sans-serif" font-size="11" fill="#1f2328">TEXT</text>
<rect x="105.2" y="48.0" width="36.0" height="216.0" fill="#1a7f37" rx="2"/>
<text x="123.2" y="44.0" text-anchor="middle" font-family="system-ui,sans-serif" font-size="9" fill="#1f2328">5</text>
<rect x="263.2" y="48.0" width="36.0" height="216.0" fill="#1a7f37" rx="2"/>
<text x="281.2" y="44.0" text-anchor="middle" font-family="system-ui,sans-serif" font-size="9" fill="#1f2328">5</text>
<rect x="421.2" y="134.4" width="36.0" height="129.6" fill="#1a7f37" rx="2"/>
<text x="439.2" y="130.4" text-anchor="middle" font-family="system-ui,sans-serif" font-size="9" fill="#1f2328">3</text>
<rect x="579.2" y="264.0" width="36.0" height="0.0" fill="#1a7f37" rx="2"/>
<text x="597.2" y="260.0" text-anchor="middle" font-family="system-ui,sans-serif" font-size="9" fill="#1f2328">0</text>
<rect x="174" y="298" width="10" height="10" fill="#1a7f37"/>
<text x="188" y="307" font-family="system-ui,sans-serif" font-size="11" fill="#1f2328">RESUME</text>
<rect x="144.8" y="48.0" width="36.0" height="216.0" fill="#bf8700" rx="2"/>
<text x="162.8" y="44.0" text-anchor="middle" font-family="system-ui,sans-serif" font-size="9" fill="#1f2328">5</text>
<rect x="302.8" y="48.0" width="36.0" height="216.0" fill="#bf8700" rx="2"/>
<text x="320.8" y="44.0" text-anchor="middle" font-family="system-ui,sans-serif" font-size="9" fill="#1f2328">5</text>
<rect x="460.8" y="134.4" width="36.0" height="129.6" fill="#bf8700" rx="2"/>
<text x="478.8" y="130.4" text-anchor="middle" font-family="system-ui,sans-serif" font-size="9" fill="#1f2328">3</text>
<rect x="618.8" y="264.0" width="36.0" height="0.0" fill="#bf8700" rx="2"/>
<text x="636.8" y="260.0" text-anchor="middle" font-family="system-ui,sans-serif" font-size="9" fill="#1f2328">0</text>
<rect x="284" y="298" width="10" height="10" fill="#bf8700"/>
<text x="298" y="307" font-family="system-ui,sans-serif" font-size="11" fill="#1f2328">ARM-D</text>
<text x="143.0" y="284" text-anchor="middle" font-family="system-ui,sans-serif" font-size="11" fill="#1f2328">cp20</text>
<text x="301.0" y="284" text-anchor="middle" font-family="system-ui,sans-serif" font-size="11" fill="#1f2328">cp40</text>
<text x="459.0" y="284" text-anchor="middle" font-family="system-ui,sans-serif" font-size="11" fill="#1f2328">cp60</text>
<text x="617.0" y="284" text-anchor="middle" font-family="system-ui,sans-serif" font-size="11" fill="#1f2328">cp80</text>
</svg>